/* XPM */
static char *right2_xpm[] = {
"18 18 2 1",
"0	c #000000",
" 	c None",
"                  ",
"                  ",
"           0      ",
"           00     ",
"            00    ",
"             00   ",
"              00  ",
"               00 ",
"000000000000000000",
"000000000000000000",
"               00 ",
"              00  ",
"             00   ",
"            00    ",
"           00     ",
"           0      ",
"                  ",
"                  "
};
