/* XPM */
static char *up2_xpm[] = {
"18 18 2 1",
"0	c #000000",
" 	c None",
"        00        ",
"       0000       ",
"      000000      ",
"     00 00 00     ",
"    00  00  00    ",
"   00   00   00   ",
"  00    00    00  ",
"        00        ",
"        00        ",
"        00        ",
"        00        ",
"        00        ",
"        00        ",
"        00        ",
"        00        ",
"        00        ",
"        00        ",
"        00        "
};
