/* XPM */
static char *swap2_xpm[] = {
"18 18 2 1",
"0	c #000000",
" 	c None",
"  000             ",
"  0 0             ",
"00000000000000000 ",
"0 0 0 0 0 0 0 0 0 ",
"00000000000000000 ",
"  0 0             ",
"  000          0  ",
"  0 0         000 ",
"  000        0 0 0",
"  0 0          0  ",
"  000          0  ",
"  0 0          0  ",
"  000         0   ",
"  0 0   0    0    ",
"  000  0    0     ",
"  0 0 000000      ",
"  000  0          ",
"        0         "
};
