/* XPM */
static char *down2_xpm[] = {
"18 18 2 1",
"0	c #000000",
" 	c None",
"        00        ",
"        00        ",
"        00        ",
"        00        ",
"        00        ",
"        00        ",
"        00        ",
"        00        ",
"        00        ",
"        00        ",
"        00        ",
"  00    00    00  ",
"   00   00   00   ",
"    00  00  00    ",
"     00 00 00     ",
"      000000      ",
"       0000       ",
"        00        "
};
