/* XPM */
static char *check_xpm[] = {
"18 18 2 1",
"0	c #000000",
" 	c None",
"                  ",
"            0     ",
"           0 0    ",
"           0  0   ",
"          0    0  ",
"          0    0  ",
"         0    0   ",
"         0   0    ",
"   0    0   0     ",
"  0 0   0   0     ",
" 0  0  0   0      ",
" 0   00   0       ",
"  0      0 0     0",
"   0    0  0  0  0",
"    0   0  0  0  0",
"     0 0   0  0  0",
"      0    0 0 0 0",
"            0   0 "
};
