/* XPM */
static char *prevword2_xpm[] = {
"18 18 2 1",
"0	c #000000",
" 	c None",
"                  ",
"                  ",
"         0    0   ",
"        00   00   ",
"       00   00    ",
"      00   00     ",
"     00   00      ",
"    00   00       ",
"   00   00        ",
"   00   00        ",
"    00   00       ",
"     00   00      ",
"      00   00     ",
"       00   00    ",
"        00   00   ",
"         0    0   ",
"                  ",
"                  "
};
