/* XPM */
static char *solve_xpm[] = {
"18 18 2 1",
"0	c #000000",
" 	c None",
"                  ",
"      000         ",
"    00   00       ",
"   0       0      ",
"  0   000   0     ",
"  0  0   0  0     ",
"  0000   0  0     ",
"        0   0     ",
"       0   0      ",
"      0   0       ",
"     0   0        ",
"     0000         ",
"           0     0",
"     0000  0  0  0",
"     0  0  0  0  0",
"     0  0  0  0  0",
"     0000  0 0 0 0",
"            0   0 "
};
