/* XPM */
static char *backspace2_xpm[] = {
"18 18 2 1",
"0	c #000000",
" 	c None",
"                  ",
"                  ",
"                  ",
"                  ",
"      0           ",
"     00           ",
"    00            ",
"   0000000000000  ",
"  00           0  ",
"  00           0  ",
"   0000000000000  ",
"    00            ",
"     00           ",
"      0           ",
"                  ",
"                  ",
"                  ",
"                  "
};
